2.8Hzlow3min_grf.mot
version=1
nRows=25
nColumns 19
inDegrees=yes
endheader
time	1_ground_force_vx	1_ground_force_vy	1_ground_force_vz	1_ground_force_px	1_ground_force_py	1_ground_force_pz	1_ground_torque_x	1_ground_torque_y	1_ground_torque_z	2_ground_force_vx	2_ground_force_vy	2_ground_force_vz	2_ground_force_px	2_ground_force_py	2_ground_force_pz	2_ground_torque_x	2_ground_torque_y	2_ground_torque_z
            0.005000	            8.555466	          197.439173	          -10.042847	           -0.195602	            0.006418	           -0.449275	            0.025405	            0.586286	           -0.029822	           20.199828	          272.198994	           14.618205	           -0.203823	            0.005679	           -0.678514	            0.073982	            0.996924	            0.053539
            0.005500	            9.333749	          200.684892	          -10.214292	           -0.196193	            0.006423	           -0.450334	            0.035179	            0.756377	           -0.038497	           19.337400	          277.535041	           14.966115	           -0.203280	            0.005683	           -0.678950	            0.067861	            0.973952	            0.052520
            0.006000	           10.616125	          204.291437	          -10.431298	           -0.196204	            0.006425	           -0.450765	            0.041559	            0.799747	           -0.040836	           18.621546	          281.213994	           15.401908	           -0.203382	            0.005680	           -0.678266	            0.060248	            0.909838	            0.049831
            0.006500	           11.027371	          207.898010	          -10.691998	           -0.196122	            0.006426	           -0.451023	            0.026642	            0.502284	           -0.025832	           17.852941	          286.549436	           16.031347	           -0.203072	            0.005681	           -0.678088	            0.058054	            0.931794	            0.052130
            0.007000	           11.575282	          211.866517	          -11.272485	           -0.195871	            0.006424	           -0.450535	            0.016986	            0.310908	           -0.016542	           16.659800	          292.621759	           16.147384	           -0.203039	            0.005682	           -0.678439	            0.055352	            0.972237	            0.053650
            0.007500	           12.397389	          216.196984	          -12.173100	           -0.196429	            0.006420	           -0.449814	            0.023409	            0.408230	           -0.022986	           15.427869	          296.483434	           16.443269	           -0.202670	            0.005681	           -0.677933	            0.054324	            1.043967	            0.057899
            0.008000	           12.715795	          219.264905	          -12.940307	           -0.196137	            0.006422	           -0.450273	            0.035377	            0.610023	           -0.036002	           14.518694	          301.818535	           17.025840	           -0.202569	            0.005683	           -0.678154	            0.049292	            1.024701	            0.057804
            0.008500	           13.401578	          223.232849	          -13.383567	           -0.196338	            0.006421	           -0.450011	            0.052494	            0.874404	           -0.052423	           13.233226	          307.521904	           17.234459	           -0.202319	            0.005685	           -0.678494	            0.043421	            1.009040	            0.056550
            0.009000	           13.674902	          227.741117	          -13.731773	           -0.196110	            0.006425	           -0.450917	            0.053783	            0.895701	           -0.054007	           12.093021	          311.936233	           17.579203	           -0.201582	            0.005686	           -0.678189	            0.035950	            0.927318	            0.052259
            0.009500	           14.177295	          232.429891	          -14.125631	           -0.196293	            0.006420	           -0.449798	            0.052146	            0.854904	           -0.051956	           11.183182	          317.455475	           18.162431	           -0.202055	            0.005685	           -0.678363	            0.031949	            0.906918	            0.051887
            0.010000	           14.313270	          236.577404	          -14.429186	           -0.196821	            0.006422	           -0.450149	            0.038874	            0.642529	           -0.039189	            9.803390	          323.342312	           18.465603	           -0.201450	            0.005689	           -0.678761	            0.029443	            0.971111	            0.055459
            0.010500	           13.898641	          240.905863	          -14.914026	           -0.197364	            0.006422	           -0.450135	            0.027046	            0.468784	           -0.029022	            8.942353	          328.309575	           18.952984	           -0.201344	            0.005688	           -0.678541	            0.026531	            0.974052	            0.056231
            0.011000	           13.713538	          244.152576	          -15.358216	           -0.196849	            0.006425	           -0.450912	            0.031825	            0.566599	           -0.035641	            7.804163	          332.171314	           19.342685	           -0.201142	            0.005688	           -0.678207	            0.023495	            1.000041	            0.058233
            0.011500	           13.893385	          249.745173	          -16.343540	           -0.196880	            0.006420	           -0.449802	            0.046059	            0.827955	           -0.054182	            6.378104	          337.874449	           19.457508	           -0.201284	            0.005687	           -0.678175	            0.019970	            1.057919	            0.060923
            0.012000	           13.661496	          253.173715	          -17.153691	           -0.196316	            0.006425	           -0.450908	            0.054870	            1.016839	           -0.068896	            5.464277	          344.498597	           20.044678	           -0.200999	            0.005691	           -0.679053	            0.015982	            1.007615	            0.058628
            0.012500	           13.431000	          258.942566	          -17.220099	           -0.197037	            0.006419	           -0.449610	            0.053371	            1.028968	           -0.068428	            4.562494	          347.807359	           20.807733	           -0.200588	            0.005690	           -0.678107	            0.012512	            0.953835	            0.057064
            0.013000	           13.062409	          263.450937	          -17.612568	           -0.196401	            0.006422	           -0.450235	            0.044257	            0.892606	           -0.059674	            3.887425	          353.144479	           21.061707	           -0.200582	            0.005689	           -0.678019	            0.010244	            0.930627	            0.055503
            0.013500	           12.693117	          268.681292	          -18.231225	           -0.197019	            0.006420	           -0.449725	            0.033115	            0.700961	           -0.047563	            3.121416	          357.743799	           21.547733	           -0.200513	            0.005690	           -0.678191	            0.007884	            0.903634	            0.054428
            0.014000	           11.775582	          273.007295	          -18.164542	           -0.197292	            0.006421	           -0.449962	            0.025351	            0.587744	           -0.039106	            2.582306	          364.369908	           21.947031	           -0.200836	            0.005691	           -0.678652	            0.006620	            0.934066	            0.056261
            0.014500	           11.406454	          277.336352	          -18.787064	           -0.197191	            0.006425	           -0.450791	            0.031232	            0.759380	           -0.051441	            1.678263	          368.233330	           22.101993	           -0.200668	            0.005689	           -0.678091	            0.004699	            1.031001	            0.061882
            0.015000	           10.761892	          283.107679	          -19.448575	           -0.197114	            0.006420	           -0.449677	            0.035628	            0.937239	           -0.064385	            1.096975	          373.570118	           22.543639	           -0.200462	            0.005692	           -0.678610	            0.002979	            1.014558	            0.061225
            0.015500	            9.980828	          287.615774	          -19.794163	           -0.197431	            0.006422	           -0.450263	            0.038463	            1.108383	           -0.076281	            0.704957	          378.356104	           22.701667	           -0.200407	            0.005691	           -0.678441	            0.001797	            0.964543	            0.057873
            0.016000	            9.107751	          292.665010	          -20.228918	           -0.197110	            0.006421	           -0.450067	            0.031582	            1.014845	           -0.070146	            0.221378	          382.588157	           23.186259	           -0.200310	            0.005692	           -0.678396	            0.000528	            0.912475	            0.055299
            0.016500	            8.647082	          298.075055	          -20.709006	           -0.197616	            0.006421	           -0.450023	            0.025553	            0.880837	           -0.061197	           -0.313204	          387.926225	           23.299389	           -0.200416	            0.005691	           -0.678406	           -0.000779	            0.964819	            0.057948
            0.017000	            8.141609	          304.023891	          -20.728103	           -0.197804	            0.006418	           -0.449321	            0.020125	            0.751526	           -0.051238	           -0.327579	          391.975495	           23.876982	           -0.200540	            0.005690	           -0.678094	           -0.000724	            0.866198	            0.052764
